<mxfile host="app.diagrams.net" modified="2024-01-16T02:21:12.834Z" agent="Mozilla/5.0 (Windows NT 10.0; Win64; x64) AppleWebKit/537.36 (KHTML, like Gecko) Chrome/120.0.0.0 Safari/537.36" etag="tk3mKWj_DT-_79l2mlXw" version="22.1.18" type="device">
  <diagram name="Página-1" id="8EeN8gGCqgROq-MhtqO8">
    <mxGraphModel dx="880" dy="460" grid="1" gridSize="10" guides="1" tooltips="1" connect="1" arrows="1" fold="1" page="1" pageScale="1" pageWidth="827" pageHeight="1169" math="0" shadow="0">
      <root>
        <mxCell id="0" />
        <mxCell id="1" parent="0" />
        <mxCell id="YecMiaMCy3yHjvxzNp5k-1" value="Cliente&amp;nbsp;&lt;br&gt;(Interfaz de usuario)" style="rounded=0;whiteSpace=wrap;html=1;" vertex="1" parent="1">
          <mxGeometry x="290" y="100" width="120" height="60" as="geometry" />
        </mxCell>
        <mxCell id="YecMiaMCy3yHjvxzNp5k-2" value="" style="shape=flexArrow;endArrow=classic;html=1;rounded=0;" edge="1" parent="1">
          <mxGeometry width="50" height="50" relative="1" as="geometry">
            <mxPoint x="350" y="170" as="sourcePoint" />
            <mxPoint x="350" y="220" as="targetPoint" />
            <Array as="points">
              <mxPoint x="350" y="190" />
            </Array>
          </mxGeometry>
        </mxCell>
        <mxCell id="YecMiaMCy3yHjvxzNp5k-3" value="Servidor de la aplicación.&lt;br&gt;(Django)" style="rounded=0;whiteSpace=wrap;html=1;" vertex="1" parent="1">
          <mxGeometry x="290" y="230" width="120" height="60" as="geometry" />
        </mxCell>
        <mxCell id="YecMiaMCy3yHjvxzNp5k-4" value="" style="shape=flexArrow;endArrow=classic;html=1;rounded=0;" edge="1" parent="1">
          <mxGeometry width="50" height="50" relative="1" as="geometry">
            <mxPoint x="349.5" y="300" as="sourcePoint" />
            <mxPoint x="349.5" y="350" as="targetPoint" />
            <Array as="points">
              <mxPoint x="349.5" y="320" />
            </Array>
          </mxGeometry>
        </mxCell>
        <mxCell id="YecMiaMCy3yHjvxzNp5k-6" value="Base de Datos.&lt;br&gt;(MySQL)" style="rounded=0;whiteSpace=wrap;html=1;" vertex="1" parent="1">
          <mxGeometry x="290" y="360" width="120" height="60" as="geometry" />
        </mxCell>
        <mxCell id="YecMiaMCy3yHjvxzNp5k-7" value="" style="shape=flexArrow;endArrow=classic;html=1;rounded=0;" edge="1" parent="1">
          <mxGeometry width="50" height="50" relative="1" as="geometry">
            <mxPoint x="349.5" y="430" as="sourcePoint" />
            <mxPoint x="349.5" y="480" as="targetPoint" />
            <Array as="points">
              <mxPoint x="349.5" y="450" />
            </Array>
          </mxGeometry>
        </mxCell>
        <mxCell id="YecMiaMCy3yHjvxzNp5k-8" value="Tipo de pago&lt;br&gt;(PSE, PayPal, Tarjeta Crédito/Débito)" style="rounded=0;whiteSpace=wrap;html=1;" vertex="1" parent="1">
          <mxGeometry x="290" y="500" width="120" height="60" as="geometry" />
        </mxCell>
        <mxCell id="YecMiaMCy3yHjvxzNp5k-9" value="" style="shape=flexArrow;endArrow=classic;html=1;rounded=0;" edge="1" parent="1">
          <mxGeometry width="50" height="50" relative="1" as="geometry">
            <mxPoint x="349.5" y="580" as="sourcePoint" />
            <mxPoint x="349.5" y="630" as="targetPoint" />
            <Array as="points">
              <mxPoint x="349.5" y="600" />
            </Array>
          </mxGeometry>
        </mxCell>
        <mxCell id="YecMiaMCy3yHjvxzNp5k-10" value="Sistema de Notificación.&lt;br&gt;(SMS, Correo Electrónico)" style="rounded=0;whiteSpace=wrap;html=1;" vertex="1" parent="1">
          <mxGeometry x="290" y="645" width="120" height="60" as="geometry" />
        </mxCell>
        <mxCell id="YecMiaMCy3yHjvxzNp5k-12" value="App" style="rounded=1;whiteSpace=wrap;html=1;" vertex="1" parent="1">
          <mxGeometry x="280" y="8" width="120" height="60" as="geometry" />
        </mxCell>
      </root>
    </mxGraphModel>
  </diagram>
</mxfile>
